<mxfile host="app.diagrams.net" modified="2021-10-21T03:44:53.117Z" agent="5.0 (Macintosh; Intel Mac OS X 10_15_7) AppleWebKit/537.36 (KHTML, like Gecko) Chrome/94.0.4606.81 Safari/537.36" etag="GjmB161R7VgrEAfj5kr6" version="15.5.7" type="github">
  <diagram id="zrj9l4zbI5ZFmGnKYnZq" name="Page-1">
    <mxGraphModel dx="1426" dy="769" grid="1" gridSize="10" guides="1" tooltips="1" connect="1" arrows="1" fold="1" page="1" pageScale="1" pageWidth="827" pageHeight="1169" background="#DAD2D8" math="0" shadow="0">
      <root>
        <mxCell id="0" />
        <mxCell id="1" parent="0" />
        <mxCell id="u2JmffNV82uvaV7Ywmff-2" value="动更检查成功" style="rounded=0;whiteSpace=wrap;html=1;fillColor=#FAE5C7;strokeColor=#0F8B8D;fontColor=#143642;" parent="1" vertex="1">
          <mxGeometry x="70" y="100" width="120" height="60" as="geometry" />
        </mxCell>
        <mxCell id="u2JmffNV82uvaV7Ywmff-7" style="edgeStyle=orthogonalEdgeStyle;rounded=0;orthogonalLoop=1;jettySize=auto;html=1;entryX=0;entryY=0.5;entryDx=0;entryDy=0;labelBackgroundColor=#DAD2D8;strokeColor=#A8201A;fontColor=#143642;" parent="1" source="u2JmffNV82uvaV7Ywmff-4" target="u2JmffNV82uvaV7Ywmff-46" edge="1">
          <mxGeometry relative="1" as="geometry">
            <mxPoint x="450" y="120" as="targetPoint" />
          </mxGeometry>
        </mxCell>
        <mxCell id="u2JmffNV82uvaV7Ywmff-4" value="生成文件下载列表" style="rounded=0;whiteSpace=wrap;html=1;fillColor=#FAE5C7;strokeColor=#0F8B8D;fontColor=#143642;" parent="1" vertex="1">
          <mxGeometry x="280" y="100" width="120" height="60" as="geometry" />
        </mxCell>
        <mxCell id="u2JmffNV82uvaV7Ywmff-5" value="" style="endArrow=classic;html=1;rounded=0;exitX=1;exitY=0.5;exitDx=0;exitDy=0;entryX=0;entryY=0.5;entryDx=0;entryDy=0;labelBackgroundColor=#DAD2D8;strokeColor=#A8201A;fontColor=#143642;" parent="1" source="u2JmffNV82uvaV7Ywmff-2" target="u2JmffNV82uvaV7Ywmff-4" edge="1">
          <mxGeometry width="50" height="50" relative="1" as="geometry">
            <mxPoint x="390" y="120" as="sourcePoint" />
            <mxPoint x="440" y="70" as="targetPoint" />
          </mxGeometry>
        </mxCell>
        <mxCell id="u2JmffNV82uvaV7Ywmff-16" value="" style="edgeStyle=orthogonalEdgeStyle;rounded=0;orthogonalLoop=1;jettySize=auto;html=1;exitX=0.5;exitY=1;exitDx=0;exitDy=0;labelBackgroundColor=#DAD2D8;strokeColor=#A8201A;fontColor=#143642;" parent="1" source="u2JmffNV82uvaV7Ywmff-43" target="u2JmffNV82uvaV7Ywmff-15" edge="1">
          <mxGeometry relative="1" as="geometry">
            <mxPoint x="490" y="450" as="sourcePoint" />
            <Array as="points">
              <mxPoint x="510" y="510" />
              <mxPoint x="590" y="510" />
            </Array>
          </mxGeometry>
        </mxCell>
        <mxCell id="u2JmffNV82uvaV7Ywmff-22" style="edgeStyle=orthogonalEdgeStyle;rounded=0;orthogonalLoop=1;jettySize=auto;html=1;labelBackgroundColor=#DAD2D8;strokeColor=#A8201A;fontColor=#143642;" parent="1" source="u2JmffNV82uvaV7Ywmff-12" target="u2JmffNV82uvaV7Ywmff-15" edge="1">
          <mxGeometry relative="1" as="geometry">
            <Array as="points">
              <mxPoint x="590" y="510" />
            </Array>
          </mxGeometry>
        </mxCell>
        <mxCell id="u2JmffNV82uvaV7Ywmff-12" value="动更下载失败" style="rounded=0;whiteSpace=wrap;html=1;fillColor=#FAE5C7;strokeColor=#0F8B8D;fontColor=#143642;" parent="1" vertex="1">
          <mxGeometry x="610" y="390" width="110" height="60" as="geometry" />
        </mxCell>
        <mxCell id="u2JmffNV82uvaV7Ywmff-15" value="进入正常游戏流程" style="whiteSpace=wrap;html=1;rounded=0;fillColor=#FAE5C7;strokeColor=#0F8B8D;fontColor=#143642;" parent="1" vertex="1">
          <mxGeometry x="390" y="580" width="120" height="60" as="geometry" />
        </mxCell>
        <mxCell id="u2JmffNV82uvaV7Ywmff-44" value="" style="edgeStyle=orthogonalEdgeStyle;rounded=0;orthogonalLoop=1;jettySize=auto;html=1;labelBackgroundColor=#DAD2D8;strokeColor=#A8201A;fontColor=#143642;" parent="1" target="u2JmffNV82uvaV7Ywmff-43" edge="1">
          <mxGeometry relative="1" as="geometry">
            <mxPoint x="510" y="280" as="sourcePoint" />
          </mxGeometry>
        </mxCell>
        <mxCell id="u2JmffNV82uvaV7Ywmff-33" value="" style="edgeStyle=orthogonalEdgeStyle;rounded=0;orthogonalLoop=1;jettySize=auto;html=1;labelBackgroundColor=#DAD2D8;strokeColor=#A8201A;fontColor=#143642;exitX=0.5;exitY=1;exitDx=0;exitDy=0;" parent="1" source="u2JmffNV82uvaV7Ywmff-50" target="u2JmffNV82uvaV7Ywmff-12" edge="1">
          <mxGeometry relative="1" as="geometry">
            <mxPoint x="710" y="280" as="sourcePoint" />
            <Array as="points">
              <mxPoint x="665" y="380" />
              <mxPoint x="665" y="380" />
            </Array>
          </mxGeometry>
        </mxCell>
        <mxCell id="u2JmffNV82uvaV7Ywmff-35" value="" style="endArrow=classic;html=1;rounded=0;entryX=1;entryY=0.5;entryDx=0;entryDy=0;exitX=1;exitY=0.5;exitDx=0;exitDy=0;labelBackgroundColor=#DAD2D8;strokeColor=#A8201A;fontColor=#143642;" parent="1" source="u2JmffNV82uvaV7Ywmff-50" target="u2JmffNV82uvaV7Ywmff-46" edge="1">
          <mxGeometry width="50" height="50" relative="1" as="geometry">
            <mxPoint x="770" y="270" as="sourcePoint" />
            <mxPoint x="770" y="120" as="targetPoint" />
            <Array as="points">
              <mxPoint x="840" y="260" />
              <mxPoint x="840" y="130" />
            </Array>
          </mxGeometry>
        </mxCell>
        <mxCell id="u2JmffNV82uvaV7Ywmff-37" value="第一次下载失败，继续下载" style="text;html=1;strokeColor=none;fillColor=none;align=center;verticalAlign=middle;whiteSpace=wrap;rounded=0;fontColor=#143642;" parent="1" vertex="1">
          <mxGeometry x="860" y="170" width="60" height="30" as="geometry" />
        </mxCell>
        <mxCell id="u2JmffNV82uvaV7Ywmff-43" value="动更下载成功" style="whiteSpace=wrap;html=1;rounded=0;fillColor=#FAE5C7;strokeColor=#0F8B8D;fontColor=#143642;" parent="1" vertex="1">
          <mxGeometry x="450" y="390" width="120" height="60" as="geometry" />
        </mxCell>
        <mxCell id="u2JmffNV82uvaV7Ywmff-45" value="下载失败" style="text;html=1;strokeColor=none;fillColor=none;align=center;verticalAlign=middle;whiteSpace=wrap;rounded=0;fontColor=#143642;" parent="1" vertex="1">
          <mxGeometry x="620" y="160" width="60" height="30" as="geometry" />
        </mxCell>
        <mxCell id="u2JmffNV82uvaV7Ywmff-51" value="" style="edgeStyle=orthogonalEdgeStyle;curved=0;rounded=1;sketch=0;orthogonalLoop=1;jettySize=auto;html=1;fontColor=#143642;strokeColor=#A8201A;fillColor=#FAE5C7;" parent="1" source="u2JmffNV82uvaV7Ywmff-46" target="u2JmffNV82uvaV7Ywmff-50" edge="1">
          <mxGeometry relative="1" as="geometry" />
        </mxCell>
        <mxCell id="u2JmffNV82uvaV7Ywmff-53" value="" style="edgeStyle=orthogonalEdgeStyle;curved=0;rounded=1;sketch=0;orthogonalLoop=1;jettySize=auto;html=1;fontColor=#143642;strokeColor=#A8201A;fillColor=#FAE5C7;" parent="1" source="u2JmffNV82uvaV7Ywmff-46" target="u2JmffNV82uvaV7Ywmff-52" edge="1">
          <mxGeometry relative="1" as="geometry" />
        </mxCell>
        <mxCell id="u2JmffNV82uvaV7Ywmff-46" value="下载文件" style="rhombus;whiteSpace=wrap;html=1;rounded=0;sketch=0;fontColor=#143642;strokeColor=#0F8B8D;fillColor=#FAE5C7;" parent="1" vertex="1">
          <mxGeometry x="535" y="90" width="90" height="80" as="geometry" />
        </mxCell>
        <mxCell id="u2JmffNV82uvaV7Ywmff-50" value="失败次数是否超过两次" style="rhombus;whiteSpace=wrap;html=1;rounded=0;sketch=0;fontColor=#143642;strokeColor=#0F8B8D;fillColor=#FAE5C7;" parent="1" vertex="1">
          <mxGeometry x="620" y="220" width="90" height="80" as="geometry" />
        </mxCell>
        <mxCell id="u2JmffNV82uvaV7Ywmff-52" value="是否所有文件都下载完毕" style="rhombus;whiteSpace=wrap;html=1;rounded=0;sketch=0;fontColor=#143642;strokeColor=#0F8B8D;fillColor=#FAE5C7;" parent="1" vertex="1">
          <mxGeometry x="465" y="220" width="90" height="80" as="geometry" />
        </mxCell>
        <mxCell id="u2JmffNV82uvaV7Ywmff-54" value="下载成功" style="text;html=1;strokeColor=none;fillColor=none;align=center;verticalAlign=middle;whiteSpace=wrap;rounded=0;sketch=0;fontColor=#143642;" parent="1" vertex="1">
          <mxGeometry x="480" y="160" width="60" height="30" as="geometry" />
        </mxCell>
        <mxCell id="u2JmffNV82uvaV7Ywmff-56" value="" style="endArrow=classic;html=1;rounded=1;sketch=0;fontColor=#143642;strokeColor=#A8201A;fillColor=#FAE5C7;curved=0;" parent="1" edge="1">
          <mxGeometry width="50" height="50" relative="1" as="geometry">
            <mxPoint x="664.5" y="510" as="sourcePoint" />
            <mxPoint x="664.5" y="630" as="targetPoint" />
          </mxGeometry>
        </mxCell>
      </root>
    </mxGraphModel>
  </diagram>
</mxfile>
